<?xml version="1.0" encoding="UTF-8" standalone="no"?>
<svg
   xmlns:dc="http://purl.org/dc/elements/1.1/"
   xmlns:cc="http://creativecommons.org/ns#"
   xmlns:rdf="http://www.w3.org/1999/02/22-rdf-syntax-ns#"
   xmlns:svg="http://www.w3.org/2000/svg"
   xmlns="http://www.w3.org/2000/svg"
   xmlns:sodipodi="http://sodipodi.sourceforge.net/DTD/sodipodi-0.dtd"
   xmlns:inkscape="http://www.inkscape.org/namespaces/inkscape"
   version="1.1"
   x="0px"
   y="0px"
   width="540px"
   height="210px"
   viewBox="0 0 18 7"
   id="svg10"
   sodipodi:docname="npm.svg"
   inkscape:version="0.92.2 5c3e80d, 2017-08-06">
  <metadata
     id="metadata16">
    <rdf:RDF>
      <cc:Work
         rdf:about="">
        <dc:format>image/svg+xml</dc:format>
        <dc:type
           rdf:resource="http://purl.org/dc/dcmitype/StillImage" />
      </cc:Work>
    </rdf:RDF>
  </metadata>
  <defs
     id="defs14" />
  <sodipodi:namedview
     pagecolor="#ffffff"
     bordercolor="#666666"
     borderopacity="1"
     objecttolerance="10"
     gridtolerance="10"
     guidetolerance="10"
     inkscape:pageopacity="0"
     inkscape:pageshadow="2"
     inkscape:window-width="1287"
     inkscape:window-height="694"
     id="namedview12"
     showgrid="false"
     inkscape:zoom="1.1742187"
     inkscape:cx="270"
     inkscape:cy="105"
     inkscape:window-x="0"
     inkscape:window-y="0"
     inkscape:window-maximized="0"
     inkscape:current-layer="svg10" />
  <path
     style="fill:#000000;stroke-width:30"
     d="M 0 0 L 0 180 L 150 180 L 150 210 L 270 210 L 270 180 L 540 180 L 540 0 L 0 0 z M 30 30 L 150 30 L 150 150 L 120 150 L 120 60 L 90 60 L 90 150 L 30 150 L 30 30 z M 180 30 L 300 30 L 300 150 L 240 150 L 240 180 L 180 180 L 180 30 z M 330 30 L 510 30 L 510 150 L 480 150 L 480 60 L 450 60 L 450 150 L 420 150 L 420 60 L 390 60 L 390 150 L 330 150 L 330 30 z M 240 60 L 240 120 L 270 120 L 270 60 L 240 60 z "
     transform="scale(0.03333333)"
     id="path2" />
</svg>
