<?xml version="1.0" encoding="UTF-8" standalone="no"?>
<svg
   xmlns:dc="http://purl.org/dc/elements/1.1/"
   xmlns:cc="http://creativecommons.org/ns#"
   xmlns:rdf="http://www.w3.org/1999/02/22-rdf-syntax-ns#"
   xmlns:svg="http://www.w3.org/2000/svg"
   xmlns="http://www.w3.org/2000/svg"
   xmlns:sodipodi="http://sodipodi.sourceforge.net/DTD/sodipodi-0.dtd"
   xmlns:inkscape="http://www.inkscape.org/namespaces/inkscape"
   id="Layer_1"
   style="enable-background:new 0 0 128 128;"
   version="1.1"
   viewBox="0 0 128 128"
   xml:space="preserve"
   sodipodi:docname="user.svg"
   inkscape:version="0.92.2 5c3e80d, 2017-08-06"><metadata
     id="metadata13"><rdf:RDF><cc:Work
         rdf:about=""><dc:format>image/svg+xml</dc:format><dc:type
           rdf:resource="http://purl.org/dc/dcmitype/StillImage" /></cc:Work></rdf:RDF></metadata><defs
     id="defs11" /><sodipodi:namedview
     pagecolor="#ffffff"
     bordercolor="#666666"
     borderopacity="1"
     objecttolerance="10"
     gridtolerance="10"
     guidetolerance="10"
     inkscape:pageopacity="0"
     inkscape:pageshadow="2"
     inkscape:window-width="1016"
     inkscape:window-height="762"
     id="namedview9"
     showgrid="false"
     inkscape:zoom="3.7739258"
     inkscape:cx="64"
     inkscape:cy="64"
     inkscape:window-x="0"
     inkscape:window-y="0"
     inkscape:window-maximized="0"
     inkscape:current-layer="Layer_1" /><style
     type="text/css"
     id="style2">
	.st0{fill:#FFFFFF;}
</style><path
     d="M 64 0 A 64 64 0 0 0 0 64 A 64 64 0 0 0 64 128 A 64 64 0 0 0 128 64 A 64 64 0 0 0 64 0 z M 62.800781 24 L 65.300781 24 C 73.300781 24 79.600391 30.899609 78.900391 39.099609 L 78.5 45 L 79.199219 45 C 80.799219 45.2 81.399219 47.400391 80.699219 49.900391 C 80.199219 51.700391 79.1 53.099219 78 53.699219 L 77.800781 56.900391 C 77.500781 60.300391 76.1 63.299609 74 65.599609 L 74 71.400391 C 74 73.400391 75.400391 75.000781 77.400391 75.300781 C 86.200391 76.800781 101 83.2 101 90 L 101 104 L 27 104 L 27 90 C 27 83.2 41.799609 76.800781 50.599609 75.300781 C 52.599609 75.000781 54 73.400391 54 71.400391 L 54 65.599609 C 51.9 63.299609 50.500781 60.300391 50.300781 56.900391 L 50.099609 53.800781 C 48.999609 53.200781 47.800781 51.800391 47.300781 49.900391 C 46.600781 47.400391 47.200781 45.2 48.800781 45 C 49.000781 45 49.200391 44.999609 49.400391 45.099609 L 49 39.099609 C 48.5 30.899609 54.800781 24 62.800781 24 z "
     id="circle4" /></svg>