<?xml version="1.0" encoding="UTF-8" standalone="no"?>
<svg
   xmlns:dc="http://purl.org/dc/elements/1.1/"
   xmlns:cc="http://creativecommons.org/ns#"
   xmlns:rdf="http://www.w3.org/1999/02/22-rdf-syntax-ns#"
   xmlns:svg="http://www.w3.org/2000/svg"
   xmlns="http://www.w3.org/2000/svg"
   xmlns:sodipodi="http://sodipodi.sourceforge.net/DTD/sodipodi-0.dtd"
   xmlns:inkscape="http://www.inkscape.org/namespaces/inkscape"
   width="24"
   height="24"
   viewBox="0 0 24 24"
   version="1.1"
   id="svg4"
   sodipodi:docname="linkedin.svg"
   inkscape:version="0.92.2 5c3e80d, 2017-08-06">
  <metadata
     id="metadata10">
    <rdf:RDF>
      <cc:Work
         rdf:about="">
        <dc:format>image/svg+xml</dc:format>
        <dc:type
           rdf:resource="http://purl.org/dc/dcmitype/StillImage" />
      </cc:Work>
    </rdf:RDF>
  </metadata>
  <defs
     id="defs8" />
  <sodipodi:namedview
     pagecolor="#ffffff"
     bordercolor="#666666"
     borderopacity="1"
     objecttolerance="10"
     gridtolerance="10"
     guidetolerance="10"
     inkscape:pageopacity="0"
     inkscape:pageshadow="2"
     inkscape:window-width="1424"
     inkscape:window-height="920"
     id="namedview6"
     showgrid="false"
     inkscape:zoom="28.037847"
     inkscape:cx="11.391561"
     inkscape:cy="9.5263013"
     inkscape:window-x="0"
     inkscape:window-y="0"
     inkscape:window-maximized="0"
     inkscape:current-layer="svg4" />
  <rect
     style="opacity:1;fill:#f5f5f5;fill-opacity:1;stroke:none;stroke-width:3.77952766;stroke-miterlimit:10;stroke-dasharray:none;stroke-dashoffset:0;stroke-opacity:1"
     id="rect812"
     width="19.509344"
     height="18.903021"
     x="2.282629"
     y="2.0653627" />
  <path
     d="M 19,0 H 5 C 2.239,0 0,2.239 0,5 v 14 c 0,2.761 2.239,5 5,5 h 14 c 2.762,0 5,-2.239 5,-5 V 5 C 24,2.239 21.762,0 19,0 Z M 8,19 H 5 V 8 H 8 Z M 6.5,6.732 c -0.966,0 -1.75,-0.79 -1.75,-1.764 0,-0.974 0.784,-1.764 1.75,-1.764 0.966,0 1.75,0.79 1.75,1.764 0,0.974 -0.783,1.764 -1.75,1.764 z M 20,19 h -3 v -5.604 c 0,-3.368 -4,-3.113 -4,0 V 19 H 10 V 8 h 3 v 1.765 c 1.396,-2.586 7,-2.777 7,2.476 z"
     id="path2"
     inkscape:connector-curvature="0" />
</svg>
