<?xml version="1.0" encoding="UTF-8" standalone="no"?>
<svg
   xmlns:dc="http://purl.org/dc/elements/1.1/"
   xmlns:cc="http://creativecommons.org/ns#"
   xmlns:rdf="http://www.w3.org/1999/02/22-rdf-syntax-ns#"
   xmlns:svg="http://www.w3.org/2000/svg"
   xmlns="http://www.w3.org/2000/svg"
   xmlns:sodipodi="http://sodipodi.sourceforge.net/DTD/sodipodi-0.dtd"
   xmlns:inkscape="http://www.inkscape.org/namespaces/inkscape"
   version="1.1"
   x="0px"
   y="0px"
   width="540px"
   height="210px"
   viewBox="0 0 18 7"
   id="svg10"
   sodipodi:docname="npm.svg"
   inkscape:version="0.92.2 5c3e80d, 2017-08-06">
  <metadata
     id="metadata16">
    <rdf:RDF>
      <cc:Work
         rdf:about="">
        <dc:format>image/svg+xml</dc:format>
        <dc:type
           rdf:resource="http://purl.org/dc/dcmitype/StillImage" />
      </cc:Work>
    </rdf:RDF>
  </metadata>
  <defs
     id="defs14">
    <inkscape:path-effect
       effect="bspline"
       id="path-effect818"
       is_visible="true"
       weight="33.333333"
       steps="2"
       helper_size="0"
       apply_no_weight="true"
       apply_with_weight="true"
       only_selected="false" />
  </defs>
  <sodipodi:namedview
     pagecolor="#ffffff"
     bordercolor="#666666"
     borderopacity="1"
     objecttolerance="10"
     gridtolerance="10"
     guidetolerance="10"
     inkscape:pageopacity="0"
     inkscape:pageshadow="2"
     inkscape:window-width="1602"
     inkscape:window-height="828"
     id="namedview12"
     showgrid="false"
     inkscape:zoom="2.0595283"
     inkscape:cx="272.7319"
     inkscape:cy="124.53688"
     inkscape:window-x="26"
     inkscape:window-y="71"
     inkscape:window-maximized="0"
     inkscape:current-layer="svg10" />
  <path
     style="opacity:1;fill:#f5f5f5;fill-opacity:1;stroke:none;stroke-width:0.12598424;stroke-miterlimit:10;stroke-dasharray:none;stroke-dashoffset:0;stroke-opacity:1"
     d="M 0.50173301,0.38036108 H 17.544469 V 5.4624305 C 14.022928,5.5695849 10.606952,5.6912154 7.412574,6.0770985 5.2645238,6.3365844 2.9276579,5.1864906 0.50173301,5.4624305 Z"
     id="rect820"
     inkscape:connector-curvature="0"
     sodipodi:nodetypes="cccscc" />
  <path
     style="fill:#000000;stroke-width:30"
     d="M 0 0 L 0 180 L 150 180 L 150 210 L 270 210 L 270 180 L 540 180 L 540 0 L 0 0 z M 30 30 L 150 30 L 150 150 L 120 150 L 120 60 L 90 60 L 90 150 L 30 150 L 30 30 z M 180 30 L 300 30 L 300 150 L 240 150 L 240 180 L 180 180 L 180 30 z M 330 30 L 510 30 L 510 150 L 480 150 L 480 60 L 450 60 L 450 150 L 420 150 L 420 60 L 390 60 L 390 150 L 330 150 L 330 30 z M 240 60 L 240 120 L 270 120 L 270 60 L 240 60 z "
     transform="scale(0.03333333)"
     id="path2" />
</svg>
